<svg width="875" height="476" viewBox="0 0 875 476" fill="none" xmlns="http://www.w3.org/2000/svg">
<g clip-path="url(#clip0)">

<path d="M440.308 476C677.571 476 869.911 463.261 869.911 447.548C869.911 431.834 677.571 419.096 440.308 419.096C203.044 419.096 10.7041 431.834 10.7041 447.548C10.7041 463.261 203.044 476 440.308 476Z" fill="#681961"/>
<path d="M423.842 136.071C353.848 136.071 303.593 180.995 303.593 285.819C303.593 404.62 353.848 436.067 423.842 436.067C493.836 436.067 547.085 401.625 547.085 285.819C547.085 162.027 493.836 136.071 423.842 136.071ZM424.302 396.633C375.822 396.633 350.495 368.18 350.495 285.896C350.495 213.292 376.859 175.005 425.339 175.005C473.818 175.005 500.183 200.155 500.183 285.896C500.182 366.106 472.781 396.633 424.302 396.633Z" fill="#681961"/>
<path d="M261.68 353.206H232.741V267.952C232.741 263.423 230.943 259.081 227.742 255.879C224.541 252.677 220.2 250.878 215.674 250.878H208.893C206.652 250.878 204.432 251.32 202.362 252.178C200.291 253.036 198.41 254.293 196.825 255.879C195.24 257.464 193.983 259.346 193.125 261.418C192.268 263.489 191.826 265.709 191.826 267.952V353.206H110.197C108.518 353.206 106.867 352.772 105.405 351.946C103.943 351.119 102.719 349.929 101.852 348.49C100.986 347.051 100.505 345.413 100.458 343.733C100.411 342.054 100.798 340.391 101.583 338.906L187.978 175.321C189.055 173.281 189.708 171.044 189.897 168.746C190.086 166.447 189.808 164.133 189.079 161.945C188.349 159.757 187.185 157.739 185.654 156.014C184.124 154.288 182.26 152.891 180.175 151.906L175.075 149.496C171.115 147.626 166.588 147.349 162.43 148.725C158.271 150.1 154.801 153.022 152.736 156.886L47.3663 354.081C45.572 357.439 44.6333 361.188 44.6333 364.996C44.6333 368.036 45.2319 371.047 46.3949 373.855C47.5579 376.664 49.2626 379.217 51.4115 381.366C53.5605 383.516 56.1117 385.222 58.9194 386.385C61.7271 387.549 64.7365 388.147 67.7756 388.147H191.826V442.057C191.826 444.745 192.355 447.406 193.383 449.889C194.411 452.372 195.918 454.628 197.818 456.528C199.718 458.429 201.973 459.936 204.455 460.965C206.937 461.993 209.597 462.523 212.283 462.523H212.283C214.97 462.523 217.63 461.993 220.112 460.965C222.594 459.936 224.849 458.429 226.749 456.528C228.649 454.628 230.155 452.372 231.184 449.889C232.212 447.406 232.741 444.745 232.741 442.057V388.147H261.68C266.312 388.147 270.754 386.307 274.029 383.03C277.304 379.754 279.144 375.31 279.144 370.677C279.144 366.043 277.304 361.6 274.029 358.323C270.754 355.047 266.312 353.206 261.68 353.206Z" fill="#681961"/>
<path d="M797.562 353.206H768.623V267.952C768.623 263.423 766.824 259.081 763.624 255.879C760.423 252.677 756.082 250.878 751.556 250.878H744.775C742.533 250.878 740.314 251.32 738.244 252.178C736.173 253.036 734.291 254.293 732.707 255.879C731.122 257.464 729.865 259.346 729.007 261.418C728.149 263.489 727.708 265.709 727.708 267.952V353.206H646.079C644.4 353.206 642.749 352.772 641.287 351.946C639.825 351.119 638.601 349.929 637.734 348.49C636.867 347.051 636.387 345.413 636.34 343.733C636.293 342.054 636.68 340.391 637.465 338.906L723.86 175.321C724.937 173.281 725.59 171.045 725.779 168.746C725.968 166.447 725.689 164.133 724.96 161.945C724.231 159.757 723.066 157.739 721.536 156.014C720.006 154.288 718.142 152.891 716.057 151.906L710.957 149.496C706.997 147.626 702.469 147.349 698.311 148.725C694.153 150.1 690.683 153.022 688.618 156.886L583.248 354.081C581.454 357.439 580.515 361.188 580.515 364.996C580.515 371.136 582.953 377.025 587.293 381.366C591.633 385.708 597.52 388.147 603.657 388.147H727.708V442.057C727.708 447.485 729.863 452.69 733.7 456.528C737.536 460.366 742.74 462.523 748.165 462.523C753.591 462.523 758.794 460.366 762.631 456.528C766.467 452.69 768.622 447.485 768.622 442.057V388.147H797.562C802.194 388.147 806.636 386.307 809.911 383.03C813.186 379.754 815.026 375.31 815.026 370.677C815.026 366.043 813.186 361.6 809.911 358.323C806.636 355.047 802.194 353.206 797.562 353.206Z" fill="#681961"/>



</g>
<defs>
<clipPath id="clip0">
<rect width="875" height="476" fill="#681961"/>
</clipPath>
</defs>
</svg>
